<svg id="Layer_1" data-name="Layer 1" xmlns="http://www.w3.org/2000/svg" viewBox="0 0 640.5 659.21"><defs><style>.cls-1{fill:#29abe2;stroke:#fff;}.cls-1,.cls-2{stroke-miterlimit:10;stroke-width:2px;}.cls-2{fill:none;stroke:#000;}</style></defs><title>cubes</title><path class="cls-1" d="M249.1,263" transform="translate(-0.5 0)"/><path d="M102.2,235.8v91.7H6V235.8h96.2m2-2H4v95.7H104.2Z" transform="translate(-0.5 0)"/><ellipse cx="102.7" cy="234.7" rx="4" ry="3.7"/><path d="M103.2,232a2.76,2.76,0,1,1-.5,5.5,2.72,2.72,0,0,1-2.5-2.7,2.84,2.84,0,0,1,3-2.8h0m0-2a4.76,4.76,0,0,0,.5,9.5,4.72,4.72,0,0,0,4.5-4.7,4.91,4.91,0,0,0-5-4.8Z" transform="translate(-0.5 0)"/><ellipse cx="4.5" cy="328.6" rx="4" ry="3.7"/><path d="M5,325.8a2.76,2.76,0,1,1-.5,5.5A2.72,2.72,0,0,1,2,328.6a3,3,0,0,1,3-2.8H5m0-2a4.76,4.76,0,0,0,.5,9.5,4.72,4.72,0,0,0,4.5-4.7,5,5,0,0,0-5-4.8Z" transform="translate(-0.5 0)"/><ellipse cx="5.4" cy="234.7" rx="4" ry="3.7"/><path d="M6,232a2.76,2.76,0,0,1-.5,5.5A2.72,2.72,0,0,1,3,234.8,2.9,2.9,0,0,1,6,232H6m0-2a4.76,4.76,0,1,0,.5,9.5,4.72,4.72,0,0,0,4.5-4.7A4.91,4.91,0,0,0,6,230Z" transform="translate(-0.5 0)"/><ellipse cx="102.7" cy="328.6" rx="4" ry="3.7"/><path d="M103.2,325.8a2.76,2.76,0,1,1-.5,5.5,2.72,2.72,0,0,1-2.5-2.7,2.91,2.91,0,0,1,3-2.8h0m0-2a4.76,4.76,0,0,0,.5,9.5,4.72,4.72,0,0,0,4.5-4.7,5,5,0,0,0-5-4.8Z" transform="translate(-0.5 0)"/><path d="M149.8,190.3V282H53.6V190.3h96.2m2-2H51.6V284H151.8V188.3Z" transform="translate(-0.5 0)"/><ellipse cx="150.3" cy="189.2" rx="4" ry="3.7"/><path d="M150.8,186.5a2.76,2.76,0,1,1-.5,5.5,2.72,2.72,0,0,1-2.5-2.7,2.9,2.9,0,0,1,3-2.8h0m0-2a4.76,4.76,0,0,0,.5,9.5,4.72,4.72,0,0,0,4.5-4.7,4.91,4.91,0,0,0-5-4.8Z" transform="translate(-0.5 0)"/><ellipse cx="52.1" cy="283.1" rx="4" ry="3.7"/><path d="M52.6,280.3a2.76,2.76,0,1,1-.5,5.5,2.72,2.72,0,0,1-2.5-2.7,2.91,2.91,0,0,1,3-2.8h0m0-2a4.76,4.76,0,0,0,.5,9.5,4.72,4.72,0,0,0,4.5-4.7,5,5,0,0,0-5-4.8Z" transform="translate(-0.5 0)"/><ellipse cx="53.1" cy="189.2" rx="4" ry="3.7"/><path d="M53.6,186.5a2.76,2.76,0,0,1-.5,5.5,2.72,2.72,0,0,1-2.5-2.7,2.84,2.84,0,0,1,3-2.8h0m0-2a4.76,4.76,0,1,0,.5,9.5,4.72,4.72,0,0,0,4.5-4.7,4.91,4.91,0,0,0-5-4.8Z" transform="translate(-0.5 0)"/><ellipse cx="150.3" cy="283.1" rx="4" ry="3.7"/><path d="M150.8,280.3a2.76,2.76,0,1,1-.5,5.5,2.72,2.72,0,0,1-2.5-2.7,3,3,0,0,1,3-2.8h0m0-2a4.76,4.76,0,0,0,.5,9.5,4.72,4.72,0,0,0,4.5-4.7,5,5,0,0,0-5-4.8Z" transform="translate(-0.5 0)"/><line class="cls-2" x1="5.4" y1="234.7" x2="53.1" y2="189.2"/><line class="cls-2" x1="3.5" y1="329.5" x2="51.1" y2="284"/><line class="cls-2" x1="102.7" y1="233.8" x2="150.3" y2="188.3"/><line class="cls-2" x1="103.7" y1="326.7" x2="151.3" y2="281.2"/><path d="M199.2,329.2V421H103V329.3h96.2m2-2.1H101V423H201.2Z" transform="translate(-0.5 0)"/><ellipse cx="199.7" cy="328.2" rx="4" ry="3.7"/><path d="M200.2,325.4a2.76,2.76,0,1,1-.5,5.5,2.72,2.72,0,0,1-2.5-2.7,3,3,0,0,1,3-2.8h0m0-2a4.76,4.76,0,0,0,.5,9.5,4.72,4.72,0,0,0,4.5-4.7,4.91,4.91,0,0,0-5-4.8Z" transform="translate(-0.5 0)"/><path d="M102,425.8a3.76,3.76,0,1,1,4-3.8,4,4,0,0,1-4,3.8Z" transform="translate(-0.5 0)"/><path d="M102,419.3a2.76,2.76,0,1,1-.5,5.5,2.72,2.72,0,0,1-2.5-2.7,2.84,2.84,0,0,1,3-2.8h0m0-2a4.76,4.76,0,0,0,.5,9.5,4.72,4.72,0,0,0,4.5-4.7,4.84,4.84,0,0,0-5-4.8Z" transform="translate(-0.5 0)"/><ellipse cx="102.5" cy="328.2" rx="4" ry="3.7"/><path d="M103,325.4a2.76,2.76,0,1,1-.5,5.5,2.72,2.72,0,0,1-2.5-2.7,3,3,0,0,1,3-2.8h0m0-2a4.76,4.76,0,0,0,.5,9.5,4.72,4.72,0,0,0,4.5-4.7,5,5,0,0,0-5-4.8Z" transform="translate(-0.5 0)"/><ellipse cx="199.7" cy="422" rx="4" ry="3.7"/><path d="M200.2,419.3a2.76,2.76,0,0,1-.5,5.5,2.72,2.72,0,0,1-2.5-2.7,2.84,2.84,0,0,1,3-2.8h0m0-2a4.76,4.76,0,0,0,.5,9.5,4.72,4.72,0,0,0,4.5-4.7,4.78,4.78,0,0,0-5-4.8Z" transform="translate(-0.5 0)"/><path d="M246.8,283.8v91.7H150.6V283.8h96.2m2-2H148.6v95.7H248.8Z" transform="translate(-0.5 0)"/><ellipse cx="247.4" cy="282.7" rx="4" ry="3.7"/><path d="M247.8,280a2.76,2.76,0,1,1-.5,5.5,2.72,2.72,0,0,1-2.5-2.7,2.84,2.84,0,0,1,3-2.8h0m0-2a4.76,4.76,0,0,0,.5,9.5,4.76,4.76,0,0,0-.5-9.5Z" transform="translate(-0.5 0)"/><ellipse cx="149.1" cy="376.5" rx="4" ry="3.7"/><path d="M149.6,373.8a2.76,2.76,0,1,1-.5,5.5,2.72,2.72,0,0,1-2.5-2.7,2.84,2.84,0,0,1,3-2.8h0m0-2a4.76,4.76,0,0,0,.5,9.5,4.72,4.72,0,0,0,4.5-4.7,4.78,4.78,0,0,0-5-4.8Z" transform="translate(-0.5 0)"/><ellipse cx="150.1" cy="282.7" rx="4" ry="3.7"/><path d="M150.6,280a2.76,2.76,0,1,1-.5,5.5,2.72,2.72,0,0,1-2.5-2.7,2.84,2.84,0,0,1,3-2.8h0m0-2a4.76,4.76,0,0,0,.5,9.5,4.72,4.72,0,0,0,4.5-4.7,4.78,4.78,0,0,0-5-4.8Z" transform="translate(-0.5 0)"/><ellipse cx="247.4" cy="376.5" rx="4" ry="3.7"/><path d="M247.8,373.8a2.76,2.76,0,0,1-.5,5.5,2.72,2.72,0,0,1-2.5-2.7,2.84,2.84,0,0,1,3-2.8h0m0-2a4.76,4.76,0,0,0,.5,9.5,4.72,4.72,0,0,0,4.5-4.7,4.78,4.78,0,0,0-5-4.8Z" transform="translate(-0.5 0)"/><line class="cls-2" x1="102.5" y1="328.2" x2="150.1" y2="282.7"/><line class="cls-2" x1="100.5" y1="423" x2="148.1" y2="377.5"/><line class="cls-2" x1="199.7" y1="327.2" x2="247.4" y2="281.8"/><line class="cls-2" x1="200.7" y1="420.1" x2="248.3" y2="374.6"/><path d="M248.1,190.3V282H151.9V190.3h96.2m2-2H149.9V284H250.1V188.3Z" transform="translate(-0.5 0)"/><ellipse cx="247.6" cy="189.2" rx="4" ry="3.7"/><path d="M248.2,186.5a2.76,2.76,0,1,1-.5,5.5,2.76,2.76,0,0,1,.5-5.5h0m0-2a4.76,4.76,0,0,0,.5,9.5,4.72,4.72,0,0,0,4.5-4.7,4.84,4.84,0,0,0-5-4.8Z" transform="translate(-0.5 0)"/><ellipse cx="149.4" cy="283" rx="4" ry="3.7"/><path d="M149.9,280.3a2.76,2.76,0,1,1-.5,5.5,2.72,2.72,0,0,1-2.5-2.7,2.9,2.9,0,0,1,3-2.8h0m0-2a4.76,4.76,0,0,0,.5,9.5,4.72,4.72,0,0,0,4.5-4.7,4.79,4.79,0,0,0-5-4.8Z" transform="translate(-0.5 0)"/><ellipse cx="150.4" cy="189.2" rx="4" ry="3.7"/><path d="M150.9,186.5a2.76,2.76,0,1,1-.5,5.5,2.72,2.72,0,0,1-2.5-2.7,2.84,2.84,0,0,1,3-2.8h0m0-2a4.76,4.76,0,0,0,.5,9.5,4.76,4.76,0,0,0-.5-9.5Z" transform="translate(-0.5 0)"/><ellipse cx="247.6" cy="283" rx="4" ry="3.7"/><path d="M248.2,280.3a2.76,2.76,0,1,1-.5,5.5,2.72,2.72,0,0,1-2.5-2.7,2.79,2.79,0,0,1,3-2.8h0m0-2a4.76,4.76,0,0,0,.5,9.5,4.72,4.72,0,0,0,4.5-4.7,4.91,4.91,0,0,0-5-4.8Z" transform="translate(-0.5 0)"/><path d="M294.8,144.8v91.7H198.6V144.8h96.2m2-2H196.6v95.7H296.8Z" transform="translate(-0.5 0)"/><ellipse cx="295.3" cy="143.7" rx="4" ry="3.7"/><path d="M295.8,141a2.76,2.76,0,1,1-.5,5.5,2.72,2.72,0,0,1-2.5-2.7,2.78,2.78,0,0,1,3-2.8h0m0-2a4.76,4.76,0,0,0,.5,9.5,4.72,4.72,0,0,0,4.5-4.7,4.84,4.84,0,0,0-5-4.8Z" transform="translate(-0.5 0)"/><ellipse cx="197.1" cy="237.5" rx="4" ry="3.7"/><path d="M197.5,234.8a2.76,2.76,0,1,1-.5,5.5,2.72,2.72,0,0,1-2.5-2.7,2.9,2.9,0,0,1,3-2.8h0m0-2a4.76,4.76,0,0,0,.5,9.5,4.72,4.72,0,0,0,4.5-4.7,4.79,4.79,0,0,0-5-4.8Z" transform="translate(-0.5 0)"/><ellipse cx="198.1" cy="143.7" rx="4" ry="3.7"/><path d="M198.5,141a2.76,2.76,0,1,1-.5,5.5,2.72,2.72,0,0,1-2.5-2.7,2.84,2.84,0,0,1,3-2.8h0m0-2a4.76,4.76,0,0,0,.5,9.5,4.76,4.76,0,0,0-.5-9.5Z" transform="translate(-0.5 0)"/><ellipse cx="295.3" cy="237.5" rx="4" ry="3.7"/><path d="M295.8,234.8a2.76,2.76,0,1,1-.5,5.5,2.72,2.72,0,0,1-2.5-2.7,2.84,2.84,0,0,1,3-2.8h0m0-2a4.76,4.76,0,0,0,.5,9.5,4.72,4.72,0,0,0,4.5-4.7,4.91,4.91,0,0,0-5-4.8Z" transform="translate(-0.5 0)"/><line class="cls-2" x1="150.4" y1="189.2" x2="198.1" y2="143.7"/><line class="cls-2" x1="148.4" y1="284" x2="196.1" y2="238.5"/><line class="cls-2" x1="247.6" y1="188.3" x2="295.3" y2="142.8"/><line class="cls-2" x1="248.6" y1="281.1" x2="296.3" y2="235.6"/><path d="M296.3,422.7v91.7H200.1V422.7h96.2m2-2H198.1v95.7H298.3Z" transform="translate(-0.5 0)"/><ellipse cx="296.8" cy="421.6" rx="4" ry="3.7"/><path d="M297.3,418.9a2.76,2.76,0,0,1-.5,5.5,2.72,2.72,0,0,1-2.5-2.7,2.84,2.84,0,0,1,3-2.8h0m0-2a4.76,4.76,0,0,0,.5,9.5,4.72,4.72,0,0,0,4.5-4.7,4.91,4.91,0,0,0-5-4.8Z" transform="translate(-0.5 0)"/><ellipse cx="198.6" cy="515.5" rx="4" ry="3.7"/><path d="M199.1,512.7a2.76,2.76,0,0,1-.5,5.5,2.72,2.72,0,0,1-2.5-2.7,2.91,2.91,0,0,1,3-2.8h0m0-2a4.76,4.76,0,0,0,.5,9.5,4.72,4.72,0,0,0,4.5-4.7,5,5,0,0,0-5-4.8Z" transform="translate(-0.5 0)"/><ellipse cx="199.6" cy="421.6" rx="4" ry="3.7"/><path d="M200,418.9a2.76,2.76,0,0,1-.5,5.5,2.72,2.72,0,0,1-2.5-2.7,2.9,2.9,0,0,1,3-2.8h0m0-2a4.76,4.76,0,0,0,.5,9.5,4.72,4.72,0,0,0,4.5-4.7,4.79,4.79,0,0,0-5-4.8Z" transform="translate(-0.5 0)"/><ellipse cx="296.8" cy="515.5" rx="4" ry="3.7"/><path d="M297.3,512.7a2.76,2.76,0,0,1-.5,5.5,2.72,2.72,0,0,1-2.5-2.7,2.91,2.91,0,0,1,3-2.8h0m0-2a4.76,4.76,0,0,0,.5,9.5,4.72,4.72,0,0,0,4.5-4.7,5,5,0,0,0-5-4.8Z" transform="translate(-0.5 0)"/><path d="M343.9,377.2v91.7H247.7V377.2h96.2m2-2H245.7v95.7H345.9Z" transform="translate(-0.5 0)"/><path d="M344.9,379.9a3.76,3.76,0,1,1,4-3.8,3.9,3.9,0,0,1-4,3.8Z" transform="translate(-0.5 0)"/><path d="M344.9,373.4a2.76,2.76,0,0,1-.5,5.5,2.72,2.72,0,0,1-2.5-2.7,3,3,0,0,1,3-2.8h0m0-2a4.76,4.76,0,0,0,.5,9.5,4.72,4.72,0,0,0,4.5-4.7,5,5,0,0,0-5-4.8Z" transform="translate(-0.5 0)"/><ellipse cx="246.2" cy="470" rx="4" ry="3.7"/><path d="M246.7,467.2a2.76,2.76,0,0,1-.5,5.5,2.72,2.72,0,0,1-2.5-2.7,2.91,2.91,0,0,1,3-2.8h0m0-2a4.76,4.76,0,0,0,.5,9.5,4.72,4.72,0,0,0,4.5-4.7,5,5,0,0,0-5-4.8Z" transform="translate(-0.5 0)"/><path d="M247.7,379.9a3.76,3.76,0,1,1,4-3.8,3.9,3.9,0,0,1-4,3.8Z" transform="translate(-0.5 0)"/><path d="M247.7,373.4a2.76,2.76,0,0,1-.5,5.5,2.72,2.72,0,0,1-2.5-2.7,2.91,2.91,0,0,1,3-2.8h0m0-2a4.76,4.76,0,0,0,.5,9.5,4.72,4.72,0,0,0,4.5-4.7,5,5,0,0,0-5-4.8Z" transform="translate(-0.5 0)"/><path d="M344.9,473.7a3.76,3.76,0,1,1,4-3.8,3.9,3.9,0,0,1-4,3.8Z" transform="translate(-0.5 0)"/><path d="M344.9,467.2a2.76,2.76,0,0,1-.5,5.5,2.72,2.72,0,0,1-2.5-2.7,3,3,0,0,1,3-2.8h0m0-2a4.76,4.76,0,0,0,.5,9.5,4.72,4.72,0,0,0,4.5-4.7,5,5,0,0,0-5-4.8Z" transform="translate(-0.5 0)"/><line class="cls-2" x1="199.6" y1="421.6" x2="247.2" y2="376.2"/><line class="cls-2" x1="197.6" y1="516.4" x2="245.2" y2="470.9"/><line class="cls-2" x1="296.8" y1="420.7" x2="344.4" y2="375.2"/><line class="cls-2" x1="297.8" y1="513.6" x2="345.4" y2="468.1"/><path d="M439.7,190.3V282H343.5V190.3h96.2m2-2H341.5V284H441.7Z" transform="translate(-0.5 0)"/><path d="M342.5,193a3.76,3.76,0,1,1,4-3.8,3.91,3.91,0,0,1-4,3.8Z" transform="translate(-0.5 0)"/><path d="M342.5,186.5a2.76,2.76,0,1,1-.5,5.5,2.72,2.72,0,0,1-2.5-2.7,2.84,2.84,0,0,1,3-2.8h0m0-2a4.76,4.76,0,0,0,.5,9.5,4.76,4.76,0,0,0-.5-9.5Z" transform="translate(-0.5 0)"/><path d="M440.7,286.8a3.76,3.76,0,1,1,4-3.8,3.85,3.85,0,0,1-4,3.8Z" transform="translate(-0.5 0)"/><path d="M440.7,280.3a2.76,2.76,0,0,1-.5,5.5,2.72,2.72,0,0,1-2.5-2.7,2.9,2.9,0,0,1,3-2.8h0m0-2a4.76,4.76,0,0,0,.5,9.5,4.72,4.72,0,0,0,4.5-4.7,4.79,4.79,0,0,0-5-4.8Z" transform="translate(-0.5 0)"/><path d="M439.8,193a3.76,3.76,0,1,1,4-3.8,4,4,0,0,1-4,3.8Z" transform="translate(-0.5 0)"/><path d="M439.8,186.5a2.76,2.76,0,0,1-.5,5.5,2.76,2.76,0,0,1,.5-5.5h0m0-2a4.76,4.76,0,0,0,.5,9.5,4.72,4.72,0,0,0,4.5-4.7,4.84,4.84,0,0,0-5-4.8Z" transform="translate(-0.5 0)"/><path d="M342.5,286.8a3.76,3.76,0,1,1,4-3.8,3.85,3.85,0,0,1-4,3.8Z" transform="translate(-0.5 0)"/><path d="M342.5,280.3a2.76,2.76,0,0,1-.5,5.5,2.72,2.72,0,0,1-2.5-2.7,2.9,2.9,0,0,1,3-2.8h0m0-2a4.76,4.76,0,0,0,.5,9.5,4.72,4.72,0,0,0,4.5-4.7,4.79,4.79,0,0,0-5-4.8Z" transform="translate(-0.5 0)"/><path d="M393.1,144.8v91.7H296.9V144.8h96.2m2-2H294.9v95.7H395.1V142.8Z" transform="translate(-0.5 0)"/><path d="M393.1,241.3a3.76,3.76,0,1,1,4-3.8,3.85,3.85,0,0,1-4,3.8Z" transform="translate(-0.5 0)"/><path d="M393.1,234.8a2.76,2.76,0,0,1-.5,5.5,2.72,2.72,0,0,1-2.5-2.7,2.9,2.9,0,0,1,3-2.8h0m0-2a4.76,4.76,0,0,0,.5,9.5,4.72,4.72,0,0,0,4.5-4.7,4.85,4.85,0,0,0-5-4.8Z" transform="translate(-0.5 0)"/><ellipse cx="391.6" cy="143.7" rx="4" ry="3.7"/><path d="M392.1,141a2.76,2.76,0,1,1-.5,5.5,2.72,2.72,0,0,1-2.5-2.7,2.84,2.84,0,0,1,3-2.8h0m0-2a4.76,4.76,0,0,0,.5,9.5,4.72,4.72,0,0,0,4.5-4.7,4.78,4.78,0,0,0-5-4.8Z" transform="translate(-0.5 0)"/><line class="cls-2" x1="439.3" y1="189.2" x2="391.6" y2="143.7"/><line class="cls-2" x1="441.2" y1="284" x2="393.6" y2="238.5"/><line class="cls-2" x1="342" y1="188.3" x2="294.4" y2="142.8"/><line class="cls-2" x1="341" y1="281.1" x2="293.4" y2="235.6"/><path d="M489.2,329.2V421H393V329.3h96.2m2-2.1H391V423H491.2Z" transform="translate(-0.5 0)"/><ellipse cx="489.7" cy="328.2" rx="4" ry="3.7"/><path d="M490.2,325.4a2.76,2.76,0,0,1-.5,5.5,2.72,2.72,0,0,1-2.5-2.7,2.91,2.91,0,0,1,3-2.8h0m0-2a4.76,4.76,0,0,0,.5,9.5,4.72,4.72,0,0,0,4.5-4.7,5,5,0,0,0-5-4.8Z" transform="translate(-0.5 0)"/><ellipse cx="391.5" cy="422" rx="4" ry="3.7"/><path d="M392,419.3a2.76,2.76,0,0,1-.5,5.5,2.72,2.72,0,0,1-2.5-2.7,2.84,2.84,0,0,1,3-2.8h0m0-2a4.76,4.76,0,0,0,.5,9.5,4.72,4.72,0,0,0,4.5-4.7,4.84,4.84,0,0,0-5-4.8Z" transform="translate(-0.5 0)"/><ellipse cx="392.5" cy="328.2" rx="4" ry="3.7"/><path d="M393,325.4a2.76,2.76,0,0,1-.5,5.5,2.72,2.72,0,0,1-2.5-2.7,3,3,0,0,1,3-2.8h0m0-2a4.76,4.76,0,0,0,.5,9.5,4.72,4.72,0,0,0,4.5-4.7,5,5,0,0,0-5-4.8Z" transform="translate(-0.5 0)"/><ellipse cx="489.7" cy="422" rx="4" ry="3.7"/><path d="M490.2,419.3a2.76,2.76,0,0,1-.5,5.5,2.72,2.72,0,0,1-2.5-2.7,2.78,2.78,0,0,1,3-2.8h0m0-2a4.76,4.76,0,0,0,.5,9.5,4.72,4.72,0,0,0,4.5-4.7,4.84,4.84,0,0,0-5-4.8Z" transform="translate(-0.5 0)"/><path d="M536.8,283.8v91.7H440.6V283.8h96.2m2-2H438.6v95.7H538.8Z" transform="translate(-0.5 0)"/><path d="M537.8,286.4a3.76,3.76,0,1,1,4-3.8,3.84,3.84,0,0,1-4,3.8Z" transform="translate(-0.5 0)"/><path d="M537.8,280a2.76,2.76,0,0,1-.5,5.5,2.72,2.72,0,0,1-2.5-2.7,2.84,2.84,0,0,1,3-2.8h0m0-2a4.76,4.76,0,0,0,.5,9.5,4.72,4.72,0,0,0,4.5-4.7,4.84,4.84,0,0,0-5-4.8Z" transform="translate(-0.5 0)"/><path d="M439.6,380.3a3.76,3.76,0,1,1,4-3.8,4,4,0,0,1-4,3.8Z" transform="translate(-0.5 0)"/><path d="M439.6,373.8a2.76,2.76,0,0,1-.5,5.5,2.72,2.72,0,0,1-2.5-2.7,2.78,2.78,0,0,1,3-2.8h0m0-2a4.76,4.76,0,0,0,.5,9.5,4.72,4.72,0,0,0,4.5-4.7,4.84,4.84,0,0,0-5-4.8Z" transform="translate(-0.5 0)"/><path d="M440.6,286.4a3.76,3.76,0,1,1,4-3.8,3.9,3.9,0,0,1-4,3.8Z" transform="translate(-0.5 0)"/><path d="M440.6,280a2.76,2.76,0,0,1-.5,5.5,2.72,2.72,0,0,1-2.5-2.7,2.78,2.78,0,0,1,3-2.8h0m0-2a4.76,4.76,0,0,0,.5,9.5,4.72,4.72,0,0,0,4.5-4.7,4.84,4.84,0,0,0-5-4.8Z" transform="translate(-0.5 0)"/><path d="M537.8,380.3a3.76,3.76,0,1,1,4-3.8,4,4,0,0,1-4,3.8Z" transform="translate(-0.5 0)"/><path d="M537.8,373.8a2.76,2.76,0,0,1-.5,5.5,2.72,2.72,0,0,1-2.5-2.7,2.84,2.84,0,0,1,3-2.8h0m0-2a4.76,4.76,0,0,0,.5,9.5,4.72,4.72,0,0,0,4.5-4.7,4.84,4.84,0,0,0-5-4.8Z" transform="translate(-0.5 0)"/><line class="cls-2" x1="392.5" y1="328.2" x2="440.1" y2="282.7"/><line class="cls-2" x1="390.5" y1="423" x2="438.1" y2="377.5"/><line class="cls-2" x1="489.7" y1="327.2" x2="537.3" y2="281.8"/><line class="cls-2" x1="490.7" y1="420.1" x2="538.3" y2="374.6"/><path d="M441.2,468.2v91.7H345V468.2h96.2m2-2H343v95.7H443.2Z" transform="translate(-0.5 0)"/><path d="M442.2,470.9a3.76,3.76,0,1,1,4-3.8,3.78,3.78,0,0,1-4,3.8Z" transform="translate(-0.5 0)"/><path d="M442.2,464.4a2.76,2.76,0,0,1-.5,5.5,2.72,2.72,0,0,1-2.5-2.7,3,3,0,0,1,3-2.8h0m0-2a4.76,4.76,0,0,0,.5,9.5,4.72,4.72,0,0,0,4.5-4.7,4.85,4.85,0,0,0-5-4.8Z" transform="translate(-0.5 0)"/><path d="M344,564.7a3.76,3.76,0,1,1,4-3.8,3.84,3.84,0,0,1-4,3.8Z" transform="translate(-0.5 0)"/><path d="M344,558.3a2.76,2.76,0,0,1-.5,5.5,2.72,2.72,0,0,1-2.5-2.7,2.84,2.84,0,0,1,3-2.8h0m0-2a4.76,4.76,0,0,0,.5,9.5,4.72,4.72,0,0,0,4.5-4.7,4.84,4.84,0,0,0-5-4.8Z" transform="translate(-0.5 0)"/><path d="M442.2,564.7a3.76,3.76,0,1,1,4-3.8,3.78,3.78,0,0,1-4,3.8Z" transform="translate(-0.5 0)"/><path d="M442.2,558.3a2.76,2.76,0,0,1-.5,5.5,2.72,2.72,0,0,1-2.5-2.7,2.89,2.89,0,0,1,3-2.8h0m0-2a4.76,4.76,0,0,0,.5,9.5,4.76,4.76,0,0,0-.5-9.5Z" transform="translate(-0.5 0)"/><path d="M488.9,422.7v91.7H392.7V422.7h96.2m2-2H390.7v95.7H490.9V420.7Z" transform="translate(-0.5 0)"/><path d="M489.9,425.4a3.76,3.76,0,1,1,4-3.8,3.9,3.9,0,0,1-4,3.8Z" transform="translate(-0.5 0)"/><path d="M489.9,418.9a2.76,2.76,0,0,1-.5,5.5,2.72,2.72,0,0,1-2.5-2.7,2.91,2.91,0,0,1,3-2.8h0m0-2a4.76,4.76,0,0,0,.5,9.5,4.72,4.72,0,0,0,4.5-4.7,5,5,0,0,0-5-4.8Z" transform="translate(-0.5 0)"/><ellipse cx="391.1" cy="515.5" rx="4" ry="3.7"/><path d="M391.7,512.8a2.76,2.76,0,0,1-.5,5.5,2.76,2.76,0,0,1,.5-5.5h0m0-2a4.76,4.76,0,0,0,.5,9.5,4.72,4.72,0,0,0,4.5-4.7,4.84,4.84,0,0,0-5-4.8Z" transform="translate(-0.5 0)"/><ellipse cx="392.1" cy="421.7" rx="4" ry="3.7"/><path d="M392.6,418.9a2.76,2.76,0,0,1-.5,5.5,2.72,2.72,0,0,1-2.5-2.7,3,3,0,0,1,3-2.8h0m0-2a4.76,4.76,0,0,0,.5,9.5,4.72,4.72,0,0,0,4.5-4.7,4.85,4.85,0,0,0-5-4.8Z" transform="translate(-0.5 0)"/><path d="M489.9,519.2a3.76,3.76,0,1,1,4-3.8,3.9,3.9,0,0,1-4,3.8Z" transform="translate(-0.5 0)"/><path d="M489.9,512.8a2.76,2.76,0,0,1-.5,5.5,2.72,2.72,0,0,1-2.5-2.7,2.78,2.78,0,0,1,3-2.8h0m0-2a4.76,4.76,0,0,0,.5,9.5,4.72,4.72,0,0,0,4.5-4.7,4.84,4.84,0,0,0-5-4.8Z" transform="translate(-0.5 0)"/><line class="cls-2" x1="344.5" y1="467.2" x2="392.1" y2="421.7"/><line class="cls-2" x1="342.5" y1="561.9" x2="390.2" y2="516.5"/><line class="cls-2" x1="441.7" y1="466.2" x2="489.4" y2="420.7"/><line class="cls-2" x1="442.7" y1="559.1" x2="490.4" y2="513.6"/><path d="M587.2,421.5v91.7H491V421.5h96.2m2-2H489v95.7H589.2Z" transform="translate(-0.5 0)"/><path d="M588.4,424.2a3.76,3.76,0,1,1,4-3.8,3.85,3.85,0,0,1-4,3.8Z" transform="translate(-0.5 0)"/><path d="M588.4,417.7a2.76,2.76,0,0,1-.5,5.5,2.72,2.72,0,0,1-2.5-2.7,2.9,2.9,0,0,1,3-2.8h0m0-2a4.76,4.76,0,0,0,.5,9.5,4.72,4.72,0,0,0,4.5-4.7,4.85,4.85,0,0,0-5-4.8Z" transform="translate(-0.5 0)"/><path d="M588.4,518a3.76,3.76,0,1,1,4-3.8,3.78,3.78,0,0,1-4,3.8Z" transform="translate(-0.5 0)"/><path d="M588.4,511.5a2.76,2.76,0,0,1-.5,5.5,2.72,2.72,0,0,1-2.5-2.7,3,3,0,0,1,3-2.8h0m0-2a4.76,4.76,0,0,0,.5,9.5,4.72,4.72,0,0,0,4.5-4.7,4.91,4.91,0,0,0-5-4.8Z" transform="translate(-0.5 0)"/><path d="M635,376v91.7H538.8V376H635m2-2H536.8v95.7H637Z" transform="translate(-0.5 0)"/><path d="M636,378.7a3.76,3.76,0,1,1,4-3.8,3.84,3.84,0,0,1-4,3.8Z" transform="translate(-0.5 0)"/><path d="M636,372.2a2.76,2.76,0,0,1-.5,5.5A2.72,2.72,0,0,1,633,375a2.84,2.84,0,0,1,3-2.8h0m0-2a4.76,4.76,0,0,0,.5,9.5A4.72,4.72,0,0,0,641,375a4.84,4.84,0,0,0-5-4.8Z" transform="translate(-0.5 0)"/><path d="M537.8,472.5a3.76,3.76,0,1,1,4-3.8,3.78,3.78,0,0,1-4,3.8Z" transform="translate(-0.5 0)"/><path d="M537.8,466a2.76,2.76,0,0,1-.5,5.5,2.72,2.72,0,0,1-2.5-2.7,3,3,0,0,1,3-2.8h0m0-2a4.76,4.76,0,0,0,.5,9.5,4.72,4.72,0,0,0,4.5-4.7,4.91,4.91,0,0,0-5-4.8Z" transform="translate(-0.5 0)"/><path d="M538.8,378.7a3.76,3.76,0,1,1,4-3.8,3.78,3.78,0,0,1-4,3.8Z" transform="translate(-0.5 0)"/><path d="M538.8,372.2a2.76,2.76,0,0,1-.5,5.5,2.72,2.72,0,0,1-2.5-2.7,2.84,2.84,0,0,1,3-2.8h0m0-2a4.76,4.76,0,0,0,.5,9.5,4.72,4.72,0,0,0,4.5-4.7,4.78,4.78,0,0,0-5-4.8Z" transform="translate(-0.5 0)"/><path d="M636,472.5a3.76,3.76,0,1,1,4-3.8,3.84,3.84,0,0,1-4,3.8Z" transform="translate(-0.5 0)"/><path d="M636,466a2.76,2.76,0,0,1-.5,5.5,2.72,2.72,0,0,1-2.5-2.7,3,3,0,0,1,3-2.8h0m0-2a4.76,4.76,0,0,0,.5,9.5,4.72,4.72,0,0,0,4.5-4.7,5,5,0,0,0-5-4.8Z" transform="translate(-0.5 0)"/><line class="cls-2" x1="490.7" y1="420.5" x2="538.3" y2="375"/><line class="cls-2" x1="488.7" y1="515.2" x2="536.3" y2="469.7"/><line class="cls-2" x1="587.9" y1="419.5" x2="635.5" y2="374"/><line class="cls-2" x1="588.9" y1="512.4" x2="636.5" y2="466.9"/><path d="M248.3,561.7v91.7H152.1V561.7h96.2m2-2H150.1v95.7H250.3Z" transform="translate(-0.5 0)"/><path d="M249.3,564.4a3.76,3.76,0,1,1,4-3.8,3.85,3.85,0,0,1-4,3.8Z" transform="translate(-0.5 0)"/><path d="M249.3,557.9a2.76,2.76,0,0,1-.5,5.5,2.72,2.72,0,0,1-2.5-2.7,2.9,2.9,0,0,1,3-2.8h0m0-2a4.76,4.76,0,0,0,.5,9.5,4.72,4.72,0,0,0,4.5-4.7,4.79,4.79,0,0,0-5-4.8Z" transform="translate(-0.5 0)"/><ellipse cx="150.6" cy="654.5" rx="4" ry="3.7"/><path d="M151.1,651.7a2.76,2.76,0,0,1-.5,5.5,2.72,2.72,0,0,1-2.5-2.7,2.9,2.9,0,0,1,3-2.8h0m0-2a4.76,4.76,0,0,0,.5,9.5,4.72,4.72,0,0,0,4.5-4.7,4.79,4.79,0,0,0-5-4.8Z" transform="translate(-0.5 0)"/><path d="M152.1,564.4a3.76,3.76,0,1,1,4-3.8,3.85,3.85,0,0,1-4,3.8Z" transform="translate(-0.5 0)"/><path d="M152.1,557.9a2.76,2.76,0,0,1-.5,5.5,2.72,2.72,0,0,1-2.5-2.7,2.9,2.9,0,0,1,3-2.8h0m0-2a4.76,4.76,0,0,0,.5,9.5,4.72,4.72,0,0,0,4.5-4.7,4.85,4.85,0,0,0-5-4.8Z" transform="translate(-0.5 0)"/><ellipse cx="248.9" cy="654.5" rx="4" ry="3.7"/><path d="M249.3,651.7a2.76,2.76,0,0,1-.5,5.5,2.72,2.72,0,0,1-2.5-2.7,2.9,2.9,0,0,1,3-2.8h0m0-2a4.76,4.76,0,0,0,.5,9.5,4.72,4.72,0,0,0,4.5-4.7,4.79,4.79,0,0,0-5-4.8Z" transform="translate(-0.5 0)"/><path d="M296,516.2v91.7H199.8V516.2H296m2-2H197.8v95.7H298Z" transform="translate(-0.5 0)"/><ellipse cx="198.3" cy="609" rx="4" ry="3.7"/><path d="M198.8,606.2a2.76,2.76,0,0,1-.5,5.5,2.76,2.76,0,0,1,.5-5.5h0m0-2a4.76,4.76,0,0,0,.5,9.5,4.72,4.72,0,0,0,4.5-4.7,4.84,4.84,0,0,0-5-4.8Z" transform="translate(-0.5 0)"/><ellipse cx="296.5" cy="609" rx="4" ry="3.7"/><path d="M297,606.2a2.76,2.76,0,0,1-.5,5.5A2.72,2.72,0,0,1,294,609a2.84,2.84,0,0,1,3-2.8h0m0-2a4.76,4.76,0,0,0,.5,9.5A4.72,4.72,0,0,0,302,609a4.84,4.84,0,0,0-5-4.8Z" transform="translate(-0.5 0)"/><line class="cls-2" x1="151.6" y1="560.6" x2="199.2" y2="515.1"/><line class="cls-2" x1="149.6" y1="655.4" x2="197.3" y2="609.9"/><line class="cls-2" x1="248.9" y1="559.7" x2="296.5" y2="514.2"/><line class="cls-2" x1="249.8" y1="652.5" x2="297.5" y2="607.1"/><path d="M538.1,190.3V282H441.9V190.3h96.2m2-2H439.9V284H540.1Z" transform="translate(-0.5 0)"/><path d="M538.1,193a3.76,3.76,0,1,1,4-3.8,4,4,0,0,1-4,3.8Z" transform="translate(-0.5 0)"/><path d="M538.1,186.5a2.76,2.76,0,0,1-.5,5.5,2.72,2.72,0,0,1-2.5-2.7,2.84,2.84,0,0,1,3-2.8h0m0-2a4.76,4.76,0,0,0,.5,9.5,4.72,4.72,0,0,0,4.5-4.7,4.84,4.84,0,0,0-5-4.8Z" transform="translate(-0.5 0)"/><path d="M538.1,286.8a3.76,3.76,0,1,1,4-3.8,3.91,3.91,0,0,1-4,3.8Z" transform="translate(-0.5 0)"/><path d="M538.1,280.3a2.76,2.76,0,0,1-.5,5.5,2.72,2.72,0,0,1-2.5-2.7,2.9,2.9,0,0,1,3-2.8h0m0-2a4.76,4.76,0,0,0,.5,9.5,4.72,4.72,0,0,0,4.5-4.7,4.91,4.91,0,0,0-5-4.8Z" transform="translate(-0.5 0)"/><path d="M584.7,144.8v91.7H488.5V144.8h96.2m2-2H486.5v95.7H586.7Z" transform="translate(-0.5 0)"/><path d="M585.7,147.5a3.76,3.76,0,1,1,4-3.8,3.85,3.85,0,0,1-4,3.8Z" transform="translate(-0.5 0)"/><path d="M585.7,141a2.76,2.76,0,0,1-.5,5.5,2.72,2.72,0,0,1-2.5-2.7,2.84,2.84,0,0,1,3-2.8h0m0-2a4.76,4.76,0,0,0,.5,9.5,4.72,4.72,0,0,0,4.5-4.7,4.78,4.78,0,0,0-5-4.8Z" transform="translate(-0.5 0)"/><path d="M487.5,241.3a3.76,3.76,0,1,1,4-3.8,3.91,3.91,0,0,1-4,3.8Z" transform="translate(-0.5 0)"/><path d="M487.5,234.8a2.76,2.76,0,0,1-.5,5.5,2.72,2.72,0,0,1-2.5-2.7,2.9,2.9,0,0,1,3-2.8h0m0-2a4.76,4.76,0,0,0,.5,9.5,4.72,4.72,0,0,0,4.5-4.7,4.91,4.91,0,0,0-5-4.8Z" transform="translate(-0.5 0)"/><path d="M488.5,147.5a3.76,3.76,0,1,1,4-3.8,4,4,0,0,1-4,3.8Z" transform="translate(-0.5 0)"/><path d="M488.5,141a2.76,2.76,0,0,1-.5,5.5,2.72,2.72,0,0,1-2.5-2.7,2.84,2.84,0,0,1,3-2.8h0m0-2a4.76,4.76,0,0,0,.5,9.5,4.72,4.72,0,0,0,4.5-4.7,4.84,4.84,0,0,0-5-4.8Z" transform="translate(-0.5 0)"/><path d="M585.7,241.3a3.76,3.76,0,1,1,4-3.8,3.85,3.85,0,0,1-4,3.8Z" transform="translate(-0.5 0)"/><path d="M585.7,234.8a2.76,2.76,0,0,1-.5,5.5,2.72,2.72,0,0,1-2.5-2.7,2.9,2.9,0,0,1,3-2.8h0m0-2a4.76,4.76,0,0,0,.5,9.5,4.72,4.72,0,0,0,4.5-4.7,4.85,4.85,0,0,0-5-4.8Z" transform="translate(-0.5 0)"/><line class="cls-2" x1="440.4" y1="189.2" x2="488" y2="143.7"/><line class="cls-2" x1="438.4" y1="284" x2="486" y2="238.5"/><line class="cls-2" x1="537.6" y1="188.3" x2="585.2" y2="142.8"/><line class="cls-2" x1="538.6" y1="281.1" x2="586.2" y2="235.6"/><path d="M635,560.5v91.7H538.8V560.5H635m2-2H536.8v95.7H637Z" transform="translate(-0.5 0)"/><path d="M537.8,563.2a3.76,3.76,0,1,1,4-3.8,3.85,3.85,0,0,1-4,3.8Z" transform="translate(-0.5 0)"/><path d="M537.8,556.7a2.76,2.76,0,0,1-.5,5.5,2.72,2.72,0,0,1-2.5-2.7,2.9,2.9,0,0,1,3-2.8h0m0-2a4.76,4.76,0,0,0,.5,9.5,4.72,4.72,0,0,0,4.5-4.7,4.78,4.78,0,0,0-5-4.8Z" transform="translate(-0.5 0)"/><path d="M636,657a3.76,3.76,0,1,1,4-3.8,3.84,3.84,0,0,1-4,3.8Z" transform="translate(-0.5 0)"/><path d="M636,650.5a2.76,2.76,0,1,1-.5,5.5,2.72,2.72,0,0,1-2.5-2.7,2.9,2.9,0,0,1,3-2.8h0m0-2a4.76,4.76,0,0,0,.5,9.5,4.72,4.72,0,0,0,4.5-4.7,4.91,4.91,0,0,0-5-4.8Z" transform="translate(-0.5 0)"/><path d="M635,563.2a3.76,3.76,0,1,1,4-3.8,3.85,3.85,0,0,1-4,3.8Z" transform="translate(-0.5 0)"/><path d="M635,556.7a2.76,2.76,0,1,1-.5,5.5,2.72,2.72,0,0,1-2.5-2.7,2.9,2.9,0,0,1,3-2.8h0m0-2a4.76,4.76,0,0,0,.5,9.5,4.76,4.76,0,0,0-.5-9.5Z" transform="translate(-0.5 0)"/><path d="M537.8,657a3.76,3.76,0,1,1,4-3.8,3.78,3.78,0,0,1-4,3.8Z" transform="translate(-0.5 0)"/><path d="M537.8,650.5a2.76,2.76,0,1,1-.5,5.5,2.72,2.72,0,0,1-2.5-2.7,2.9,2.9,0,0,1,3-2.8h0m0-2a4.76,4.76,0,0,0,.5,9.5,4.72,4.72,0,0,0,4.5-4.7,4.85,4.85,0,0,0-5-4.8Z" transform="translate(-0.5 0)"/><path d="M587.4,515v91.7H491.2V515h96.2m2-2H489.2v95.7H589.4V513Z" transform="translate(-0.5 0)"/><path d="M588.4,611.5a3.76,3.76,0,1,1,4-3.8,3.78,3.78,0,0,1-4,3.8Z" transform="translate(-0.5 0)"/><path d="M588.4,605a2.76,2.76,0,1,1-.5,5.5,2.72,2.72,0,0,1-2.5-2.7,3,3,0,0,1,3-2.8h0m0-2a4.76,4.76,0,0,0,.5,9.5,4.72,4.72,0,0,0,4.5-4.7,4.91,4.91,0,0,0-5-4.8Z" transform="translate(-0.5 0)"/><path d="M490.2,611.5a3.76,3.76,0,1,1,4-3.8,3.84,3.84,0,0,1-4,3.8Z" transform="translate(-0.5 0)"/><path d="M490.2,605a2.76,2.76,0,0,1-.5,5.5,2.72,2.72,0,0,1-2.5-2.7,3,3,0,0,1,3-2.8h0m0-2a4.76,4.76,0,0,0,.5,9.5,4.72,4.72,0,0,0,4.5-4.7,5,5,0,0,0-5-4.8Z" transform="translate(-0.5 0)"/><line class="cls-2" x1="634.5" y1="559.4" x2="586.9" y2="513.9"/><line class="cls-2" x1="636.5" y1="654.2" x2="588.9" y2="608.7"/><line class="cls-2" x1="537.3" y1="558.5" x2="489.7" y2="513"/><line class="cls-2" x1="536.3" y1="651.3" x2="488.7" y2="605.9"/><path d="M295.1,51.3V143H198.9V51.3h96.2m2-2H196.9V145H297.1V49.3Z" transform="translate(-0.5 0)"/><ellipse cx="295.6" cy="50.2" rx="4" ry="3.7"/><path d="M296.1,47.5a2.76,2.76,0,1,1-.5,5.5,2.72,2.72,0,0,1-2.5-2.7,2.84,2.84,0,0,1,3-2.8h0m0-2a4.76,4.76,0,0,0,.5,9.5,4.72,4.72,0,0,0,4.5-4.7,4.91,4.91,0,0,0-5-4.8Z" transform="translate(-0.5 0)"/><ellipse cx="197.4" cy="144" rx="4" ry="3.7"/><path d="M197.9,141.3a2.76,2.76,0,1,1-.5,5.5,2.72,2.72,0,0,1-2.5-2.7,2.84,2.84,0,0,1,3-2.8h0m0-2a4.76,4.76,0,0,0,.5,9.5,4.72,4.72,0,0,0,4.5-4.7,4.91,4.91,0,0,0-5-4.8Z" transform="translate(-0.5 0)"/><ellipse cx="198.4" cy="50.2" rx="4" ry="3.7"/><path d="M198.9,47.5a2.76,2.76,0,1,1-.5,5.5,2.72,2.72,0,0,1-2.5-2.7,2.79,2.79,0,0,1,3-2.8h0m0-2a4.76,4.76,0,0,0,.5,9.5,4.72,4.72,0,0,0,4.5-4.7,4.91,4.91,0,0,0-5-4.8Z" transform="translate(-0.5 0)"/><ellipse cx="295.6" cy="144" rx="4" ry="3.7"/><path d="M296.1,141.3a2.76,2.76,0,1,1-.5,5.5,2.72,2.72,0,0,1-2.5-2.7,2.84,2.84,0,0,1,3-2.8h0m0-2a4.76,4.76,0,0,0,.5,9.5,4.72,4.72,0,0,0,4.5-4.7,4.91,4.91,0,0,0-5-4.8Z" transform="translate(-0.5 0)"/><path d="M342.7,5.8V97.5H246.5V5.8h96.2m2-2H244.5V99.5H344.7Z" transform="translate(-0.5 0)"/><ellipse cx="343.2" cy="4.7" rx="4" ry="3.7"/><path d="M343.7,2a2.79,2.79,0,0,1,2.5,3,2.79,2.79,0,0,1-3,2.5,2.72,2.72,0,0,1-2.5-2.7,2.9,2.9,0,0,1,3-2.8h0m0-2a4.79,4.79,0,0,0-4.5,5,4.79,4.79,0,0,0,5,4.5,4.72,4.72,0,0,0,4.5-4.7,4.91,4.91,0,0,0-5-4.8Z" transform="translate(-0.5 0)"/><path d="M245.5,102.3a3.76,3.76,0,1,1,4-3.8,3.9,3.9,0,0,1-4,3.8Z" transform="translate(-0.5 0)"/><path d="M245.5,95.8a2.76,2.76,0,1,1-.5,5.5,2.72,2.72,0,0,1-2.5-2.7,2.91,2.91,0,0,1,3-2.8h0m0-2a4.76,4.76,0,0,0,.5,9.5,4.72,4.72,0,0,0,4.5-4.7,5,5,0,0,0-5-4.8Z" transform="translate(-0.5 0)"/><ellipse cx="246" cy="4.7" rx="4" ry="3.7"/><path d="M246.5,2A2.79,2.79,0,0,1,249,5a2.79,2.79,0,0,1-3,2.5,2.72,2.72,0,0,1-2.5-2.7,2.84,2.84,0,0,1,3-2.8h0m0-2A4.79,4.79,0,0,0,242,5a4.79,4.79,0,0,0,5,4.5,4.72,4.72,0,0,0,4.5-4.7,4.91,4.91,0,0,0-5-4.8Z" transform="translate(-0.5 0)"/><path d="M343.7,102.3a3.76,3.76,0,1,1,4-3.8,3.84,3.84,0,0,1-4,3.8Z" transform="translate(-0.5 0)"/><path d="M343.7,95.8a2.76,2.76,0,1,1-.5,5.5,2.72,2.72,0,0,1-2.5-2.7,3,3,0,0,1,3-2.8h0m0-2a4.76,4.76,0,0,0,.5,9.5,4.72,4.72,0,0,0,4.5-4.7,5,5,0,0,0-5-4.8Z" transform="translate(-0.5 0)"/><line class="cls-2" x1="198.4" y1="50.2" x2="246" y2="4.7"/><line class="cls-2" x1="196.4" y1="145" x2="244" y2="99.5"/><line class="cls-2" x1="295.6" y1="49.3" x2="343.2" y2="3.8"/><line class="cls-2" x1="296.6" y1="142.1" x2="344.2" y2="96.7"/><path d="M393.1,51.3V143H296.9V51.3h96.2m2-2H294.9V145H395.1V49.3Z" transform="translate(-0.5 0)"/><path d="M393.1,54a3.76,3.76,0,1,1,4-3.8,3.85,3.85,0,0,1-4,3.8Z" transform="translate(-0.5 0)"/><path d="M393.1,47.5a2.76,2.76,0,1,1-.5,5.5,2.72,2.72,0,0,1-2.5-2.7,2.9,2.9,0,0,1,3-2.8h0m0-2a4.76,4.76,0,0,0,.5,9.5,4.72,4.72,0,0,0,4.5-4.7,4.85,4.85,0,0,0-5-4.8Z" transform="translate(-0.5 0)"/><path d="M295.9,54a3.76,3.76,0,1,1,4-3.8,3.91,3.91,0,0,1-4,3.8Z" transform="translate(-0.5 0)"/><path d="M295.9,47.5a2.76,2.76,0,1,1-.5,5.5,2.72,2.72,0,0,1-2.5-2.7,2.9,2.9,0,0,1,3-2.8h0m0-2a4.76,4.76,0,0,0,.5,9.5,4.72,4.72,0,0,0,4.5-4.7,4.91,4.91,0,0,0-5-4.8Z" transform="translate(-0.5 0)"/><path d="M440.9,5.8V97.5H344.7V5.8h96.2m2-2H342.7V99.5H442.9V3.8Z" transform="translate(-0.5 0)"/><path d="M440.7,8.5a3.72,3.72,0,0,1-3.5-4,3.75,3.75,0,0,1,7.5.2,3.85,3.85,0,0,1-4,3.8Z" transform="translate(-0.5 0)"/><path d="M440.7,2a2.79,2.79,0,0,1,2.5,3,2.79,2.79,0,0,1-3,2.5,2.72,2.72,0,0,1-2.5-2.7,2.9,2.9,0,0,1,3-2.8h0m0-2a4.79,4.79,0,0,0-4.5,5,4.79,4.79,0,0,0,5,4.5,4.72,4.72,0,0,0,4.5-4.7,4.79,4.79,0,0,0-5-4.8Z" transform="translate(-0.5 0)"/><ellipse cx="343" cy="4.7" rx="4" ry="3.7"/><path d="M343.5,2A2.79,2.79,0,0,1,346,5a2.79,2.79,0,0,1-3,2.5,2.72,2.72,0,0,1-2.5-2.7,2.9,2.9,0,0,1,3-2.8h0m0-2A4.79,4.79,0,0,0,339,5a4.79,4.79,0,0,0,5,4.5,4.72,4.72,0,0,0,4.5-4.7,4.85,4.85,0,0,0-5-4.8Z" transform="translate(-0.5 0)"/><path d="M440.7,102.3a3.76,3.76,0,1,1,4-3.8,3.78,3.78,0,0,1-4,3.8Z" transform="translate(-0.5 0)"/><path d="M440.7,95.8a2.76,2.76,0,1,1-.5,5.5,2.72,2.72,0,0,1-2.5-2.7,3,3,0,0,1,3-2.8h0m0-2a4.76,4.76,0,0,0,.5,9.5,4.72,4.72,0,0,0,4.5-4.7,4.85,4.85,0,0,0-5-4.8Z" transform="translate(-0.5 0)"/><line class="cls-2" x1="295.4" y1="50.2" x2="343" y2="4.7"/><line class="cls-2" x1="293.4" y1="145" x2="341" y2="99.5"/><line class="cls-2" x1="392.6" y1="49.3" x2="440.2" y2="3.8"/><line class="cls-2" x1="393.6" y1="142.1" x2="441.2" y2="96.7"/><path d="M151.3,468.2v91.7H55.1V468.2h96.2m2-2H53.1v95.7H153.3V466.2Z" transform="translate(-0.5 0)"/><ellipse cx="151.8" cy="467.2" rx="4" ry="3.7"/><path d="M152.3,464.4a2.76,2.76,0,0,1-.5,5.5,2.72,2.72,0,0,1-2.5-2.7,3,3,0,0,1,3-2.8h0m0-2a4.76,4.76,0,0,0,.5,9.5,4.72,4.72,0,0,0,4.5-4.7,5,5,0,0,0-5-4.8Z" transform="translate(-0.5 0)"/><path d="M54.1,564.7a3.76,3.76,0,1,1,4-3.8,3.9,3.9,0,0,1-4,3.8Z" transform="translate(-0.5 0)"/><path d="M54.1,558.3a2.76,2.76,0,0,1-.5,5.5,2.72,2.72,0,0,1-2.5-2.7,2.78,2.78,0,0,1,3-2.8h0m0-2a4.76,4.76,0,0,0,.5,9.5,4.72,4.72,0,0,0,4.5-4.7,4.84,4.84,0,0,0-5-4.8Z" transform="translate(-0.5 0)"/><ellipse cx="54.6" cy="467.2" rx="4" ry="3.7"/><path d="M55.1,464.4a2.76,2.76,0,0,1-.5,5.5,2.72,2.72,0,0,1-2.5-2.7,2.91,2.91,0,0,1,3-2.8h0m0-2a4.76,4.76,0,0,0,.5,9.5,4.72,4.72,0,0,0,4.5-4.7,5,5,0,0,0-5-4.8Z" transform="translate(-0.5 0)"/><path d="M152.3,564.7a3.76,3.76,0,1,1,4-3.8,3.84,3.84,0,0,1-4,3.8Z" transform="translate(-0.5 0)"/><path d="M152.3,558.3a2.76,2.76,0,0,1-.5,5.5,2.72,2.72,0,0,1-2.5-2.7,2.84,2.84,0,0,1,3-2.8h0m0-2a4.76,4.76,0,0,0,.5,9.5,4.72,4.72,0,0,0,4.5-4.7,4.84,4.84,0,0,0-5-4.8Z" transform="translate(-0.5 0)"/><path d="M197.9,422.7v91.7H101.7V422.7h96.2m2-2H99.7v95.7H199.9V420.7Z" transform="translate(-0.5 0)"/><ellipse cx="199.4" cy="421.7" rx="4" ry="3.7"/><path d="M199.9,418.9a2.76,2.76,0,0,1-.5,5.5,2.72,2.72,0,0,1-2.5-2.7,3,3,0,0,1,3-2.8h0m0-2a4.76,4.76,0,0,0,.5,9.5,4.72,4.72,0,0,0,4.5-4.7,4.91,4.91,0,0,0-5-4.8Z" transform="translate(-0.5 0)"/><ellipse cx="101.2" cy="515.5" rx="4" ry="3.7"/><path d="M101.7,512.8a2.76,2.76,0,0,1-.5,5.5,2.72,2.72,0,0,1-2.5-2.7,2.84,2.84,0,0,1,3-2.8h0m0-2a4.76,4.76,0,1,0,.5,9.5,4.72,4.72,0,0,0,4.5-4.7,4.84,4.84,0,0,0-5-4.8Z" transform="translate(-0.5 0)"/><ellipse cx="102.2" cy="421.7" rx="4" ry="3.7"/><path d="M102.7,418.9a2.76,2.76,0,1,1-.5,5.5,2.72,2.72,0,0,1-2.5-2.7,3,3,0,0,1,3-2.8h0m0-2a4.76,4.76,0,0,0,.5,9.5,4.72,4.72,0,0,0,4.5-4.7,5,5,0,0,0-5-4.8Z" transform="translate(-0.5 0)"/><ellipse cx="199.4" cy="515.5" rx="4" ry="3.7"/><path d="M199.9,512.8a2.76,2.76,0,0,1-.5,5.5,2.72,2.72,0,0,1-2.5-2.7,2.84,2.84,0,0,1,3-2.8h0m0-2a4.76,4.76,0,1,0,.5,9.5,4.72,4.72,0,0,0,4.5-4.7,4.78,4.78,0,0,0-5-4.8Z" transform="translate(-0.5 0)"/><line class="cls-2" x1="54.6" y1="467.2" x2="102.2" y2="421.7"/><line class="cls-2" x1="52.6" y1="561.9" x2="100.2" y2="516.5"/><line class="cls-2" x1="151.8" y1="466.2" x2="199.4" y2="420.7"/><line class="cls-2" x1="152.8" y1="559.1" x2="200.4" y2="513.6"/></svg>