<svg id="Layer_1" data-name="Layer 1" xmlns="http://www.w3.org/2000/svg" viewBox="0 0 243.91 243.36"><defs><style>.cls-1{fill:#0097a7;}.cls-2{fill:#fff;}.cls-3{fill:none;stroke:#000;stroke-miterlimit:10;stroke-width:8px;}</style></defs><title>linkedin</title><rect class="cls-1" x="4" y="31.36" width="208" height="208" rx="28.99" ry="28.99"/><path d="M744,298a25,25,0,0,1,25,25V473a25,25,0,0,1-25,25H594a25,25,0,0,1-25-25V323a25,25,0,0,1,25-25H744m0-8H594a33.08,33.08,0,0,0-33,33V473a33.08,33.08,0,0,0,33,33H744a33.08,33.08,0,0,0,33-33V323a33.08,33.08,0,0,0-33-33Z" transform="translate(-561 -262.64)"/><path class="cls-1" d="M780.26,471.15l-18.38,19.3a10.19,10.19,0,0,1-17.13-4.08l-7.62-25.18a10.19,10.19,0,0,1,12-12.89l26,5.88A10.19,10.19,0,0,1,780.26,471.15Z" transform="translate(-561 -262.64)"/><path class="cls-1" d="M615.85,287.23l6.57,26.65a10.19,10.19,0,0,1-12.65,12.26l-26.09-7.35a10.19,10.19,0,0,1-4.41-17.05l19.51-19.31A10.2,10.2,0,0,1,615.85,287.23Z" transform="translate(-561 -262.64)"/><rect class="cls-2" x="31.91" y="4" width="208" height="208" rx="28.99" ry="28.99"/><path d="M771.93,270.64a25,25,0,0,1,25,25v150a25,25,0,0,1-25,25h-150a25,25,0,0,1-25-25v-150a25,25,0,0,1,25-25h150m0-8h-150a33.09,33.09,0,0,0-33,33v150a33.09,33.09,0,0,0,33,33h150a33.08,33.08,0,0,0,33-33v-150a33.08,33.08,0,0,0-33-33Z" transform="translate(-561 -262.64)"/><path id="LinkedIn" d="M765.23,385.41v50.51H736V388.79c0-11.84-4.24-19.92-14.84-19.92-8.09,0-12.91,5.45-15,10.71a20.14,20.14,0,0,0-1,7.14v49.2H675.82s.39-79.82,0-88.09h29.29v12.48c-.06.1-.14.2-.19.29h.19v-.29c3.89-6,10.84-14.55,26.4-14.55C750.78,345.76,765.23,358.35,765.23,385.41ZM645.17,305.36c-10,0-16.57,6.57-16.57,15.22,0,8.45,6.36,15.23,16.19,15.23H645c10.22,0,16.57-6.78,16.57-15.23C661.36,311.93,655.2,305.36,645.17,305.36ZM630.34,435.92h29.28V347.83H630.34Z" transform="translate(-561 -262.64)"/><path class="cls-3" d="M763,495l25.61-25.61" transform="translate(-561 -262.64)"/><line class="cls-3" x1="154" y1="212.36" x2="126" y2="240.36"/><line class="cls-3" x1="189" y1="213.36" x2="163" y2="240.36"/><line class="cls-3" x1="118" y1="212.36" x2="90" y2="240.36"/><line class="cls-3" x1="81" y1="212.36" x2="53" y2="240.36"/><line class="cls-3" x1="49" y1="209.36" x2="22" y2="236.36"/><line class="cls-3" x1="30" y1="155.36" x2="3" y2="182.36"/><line class="cls-3" x1="32" y1="117.36" x2="4.5" y2="144.86"/><line class="cls-3" x1="31" y1="84.36" x2="3.5" y2="111.86"/><line class="cls-3" x1="32" y1="49.36" x2="4.5" y2="76.86"/><line class="cls-3" x1="32" y1="188.36" x2="5" y2="215.36"/><path class="cls-3" d="M573.1,302.9l28-28" transform="translate(-561 -262.64)"/></svg>