<svg id="Layer_1" data-name="Layer 1" xmlns="http://www.w3.org/2000/svg" viewBox="0 0 231.55 232"><defs><style>.cls-1{fill:#0097a7;}.cls-2{fill:#fff;}.cls-3{fill:none;stroke:#000;stroke-miterlimit:10;stroke-width:8px;}</style></defs><title>linkedin_pressed</title><rect class="cls-1" x="4" y="20" width="208" height="208" rx="28.99" ry="28.99"/><path d="M750,292a25,25,0,0,1,25,25V467a25,25,0,0,1-25,25H600a25,25,0,0,1-25-25V317a25,25,0,0,1,25-25H750m0-8H600a33.08,33.08,0,0,0-33,33V467a33.08,33.08,0,0,0,33,33H750a33.08,33.08,0,0,0,33-33V317a33.08,33.08,0,0,0-33-33Z" transform="translate(-567 -268)"/><path class="cls-1" d="M786.26,465.15l-18.38,19.3a10.19,10.19,0,0,1-17.13-4.08l-7.62-25.18a10.19,10.19,0,0,1,12-12.89l26,5.88A10.19,10.19,0,0,1,786.26,465.15Z" transform="translate(-567 -268)"/><path class="cls-1" d="M621.85,281.23l6.57,26.65a10.19,10.19,0,0,1-12.65,12.26l-26.09-7.35a10.19,10.19,0,0,1-4.41-17.05l19.51-19.31A10.2,10.2,0,0,1,621.85,281.23Z" transform="translate(-567 -268)"/><rect class="cls-2" x="19.91" y="4" width="207.64" height="207.64" rx="28.99" ry="28.99"/><path d="M765.57,276a25,25,0,0,1,25,25V450.65a25,25,0,0,1-25,25H615.9a25,25,0,0,1-25-25V301a25,25,0,0,1,25-25H765.57m0-8H615.9a33.09,33.09,0,0,0-33,33V450.65a33.09,33.09,0,0,0,33,33H765.57a33.08,33.08,0,0,0,33-33V301a33.08,33.08,0,0,0-33-33Z" transform="translate(-567 -268)"/><path id="LinkedIn" d="M759.94,390.56V441H730.7V393.94c0-11.82-4.23-19.89-14.81-19.89-8.08,0-12.89,5.44-15,10.7a20,20,0,0,0-1,7.13V441H670.67s.4-79.69,0-87.95h29.25v12.47l-.2.28h.2v-.28c3.88-6,10.82-14.53,26.35-14.53C745.51,351,759.94,363.55,759.94,390.56ZM640.08,310.65c-10,0-16.55,6.56-16.55,15.19,0,8.44,6.36,15.2,16.16,15.2h.2c10.2,0,16.54-6.76,16.54-15.2C656.24,317.21,650.09,310.65,640.08,310.65ZM625.27,441H654.5V353H625.27Z" transform="translate(-567 -268)"/><path class="cls-3" d="M769,488.85l14.91-15.75" transform="translate(-567 -268)"/><line class="cls-3" x1="144" y1="211" x2="126" y2="229"/><line class="cls-3" x1="181" y1="211" x2="163" y2="229"/><line class="cls-3" x1="108" y1="211" x2="90" y2="229"/><line class="cls-3" x1="71" y1="211" x2="53" y2="229"/><line class="cls-3" x1="36" y1="211" x2="22" y2="225"/><line class="cls-3" x1="20" y1="154" x2="3" y2="171"/><line class="cls-3" x1="20" y1="118" x2="4.5" y2="133.5"/><line class="cls-3" x1="19" y1="85" x2="3.5" y2="100.5"/><line class="cls-3" x1="20" y1="50" x2="4.5" y2="65.5"/><line class="cls-3" x1="19" y1="190" x2="5" y2="204"/><path class="cls-3" d="M580.55,295.45l16.69-16.69" transform="translate(-567 -268)"/></svg>